<svg width="194" height="60" viewBox="0 0 194 60" fill="none" xmlns="http://www.w3.org/2000/svg">
<g clip-path="url(#clip0_1_3013)">
<path d="M159.567 9.38875C157.22 9.09536 155.166 10.709 155.019 13.0562L154.873 14.0831C153.699 14.9633 150.032 19.511 151.792 37.4083H152.379C152.085 34.9144 151.939 32.7139 151.939 30.8068L152.525 30.6601C153.846 30.5134 154.873 29.1932 154.579 27.8729L154.433 27.1394L153.699 27.2861C152.819 27.4328 152.232 27.8729 151.792 28.6064C151.792 16.8704 155.019 14.5232 155.313 14.3765L156.046 14.5232C158.393 14.8166 160.447 13.2029 160.594 10.8557L160.741 9.53545L159.567 9.38875ZM148.565 6.30807C148.858 4.98778 150.178 3.37408 150.178 3.37408C149.885 1.32029 148.418 0 148.418 0C148.418 0 147.098 1.17359 146.658 3.52078C146.804 3.52078 148.271 4.84108 148.565 6.30807ZM158.834 5.13447V4.25428H157.953C156.193 4.25428 154.873 5.57457 154.873 7.33496V8.21516H155.753C157.367 8.36186 158.834 6.89487 158.834 5.13447ZM143.137 14.0831L142.99 13.0562C142.697 10.709 140.643 9.09536 138.442 9.38875L137.122 9.53545L137.269 10.8557C137.562 13.2029 139.616 14.8166 141.816 14.5232L142.55 14.3765C142.843 14.5232 146.217 17.0171 146.071 29.1932C145.777 28.6064 145.191 28.0196 144.457 27.8729L143.724 27.7262L143.577 28.4597C143.283 29.78 144.164 31.1002 145.484 31.3936L146.071 31.5403C146.071 33.3007 145.924 35.2078 145.631 37.2616H146.217C147.978 19.511 144.164 14.9633 143.137 14.0831ZM141.67 8.36186H142.55V7.33496C142.55 5.57457 141.083 4.25428 139.469 4.25428H138.589V5.13447C138.589 6.89487 140.056 8.36186 141.67 8.36186Z" fill="#AC84E3"/>
<path d="M151.939 18.7774L151.792 18.0439L151.059 18.1906C150.178 18.3373 149.445 18.9241 149.152 19.6576V14.3764C149.152 12.616 150.178 11.8825 150.178 11.8825C152.232 10.7089 153.846 6.74805 152.086 3.37396L151.939 3.08057L151.645 3.22727C150.178 3.96076 148.858 6.30795 148.565 8.80184C148.271 6.30795 146.658 4.10746 145.044 3.37396L144.751 3.22727L144.604 3.52066C143.137 7.04145 145.044 10.8556 147.244 11.8825C147.244 11.8825 148.418 12.7627 148.418 14.3764V38.1417H149.005V21.7114H149.592C151.059 21.418 152.086 20.2444 151.939 18.7774Z" fill="#AC84E3"/>
<path d="M17.7237 35.044L9.80196 17H1V42.0856H6.72127V22.7213L15.2298 42.0856H19.9242L28.4328 22.7213V42.0856H34.154V17H25.4988L17.7237 35.044ZM51.1712 17L38.555 42.2323H44.7164L47.357 36.8044H61.1467L63.7873 42.2323H70.0954L57.6259 17H51.1712ZM49.8509 31.9633L54.3985 22.7213L58.9462 31.9633H49.8509ZM101.782 17H93.7139L80.511 28.5892V17H74.643V42.0856H80.511V35.1907L85.2054 31.2298L95.0342 42.0856H102.516L89.4597 27.5623L101.782 17ZM106.623 42.0856H130.976V37.0978H112.345V31.8166H128.922V26.8288H112.345V21.9878H130.976V17H106.623V42.0856ZM184.081 17H168.237V42.2323H174.105V33.4303H184.081C189.949 33.4303 193.91 30.643 193.91 25.2152C193.91 19.7873 189.949 17 184.081 17ZM183.787 28.5892H174.105V21.9878H183.787C186.575 21.9878 188.042 23.1614 188.042 25.2152C188.042 27.2689 186.428 28.5892 183.787 28.5892ZM156.501 30.2029C156.501 34.6039 154.447 37.5379 149.313 37.5379C144.178 37.5379 141.978 34.6039 141.978 30.2029V17.1467H136.11V30.643C136.11 37.978 140.364 42.6724 149.166 42.6724C157.822 42.6724 162.222 37.978 162.222 30.643V17.1467H156.355L156.501 30.2029ZM32.8337 59.8362V53.5281H35.621C36.7946 53.5281 37.3814 54.2616 37.3814 55.1418C37.3814 55.8753 36.7946 56.4621 36.2078 56.6088C36.9413 56.7555 37.3814 57.3423 37.3814 58.2225C37.3814 59.2494 36.6479 59.9829 35.4743 59.9829H32.8337V59.8362ZM36.6479 55.1418C36.6479 54.555 36.2078 54.1149 35.4743 54.1149H33.5672V56.1687H35.4743C36.2078 56.1687 36.6479 55.7286 36.6479 55.1418ZM36.6479 58.0758C36.6479 57.489 36.2078 56.9022 35.4743 56.9022H33.5672V59.1027H35.4743C36.2078 59.1027 36.6479 58.6626 36.6479 58.0758ZM39.7286 59.8362V53.5281H43.9829V54.2616H40.6088V56.3154H43.9829V57.0489H40.6088V59.2494H43.9829V59.9829L39.7286 59.8362ZM50.7311 59.8362L50.1443 58.3692H46.9169L46.3301 59.8362H45.4499L48.0905 53.5281H49.1174L51.7579 59.8362H50.7311ZM48.5306 54.2616L47.2103 57.7824H49.8509L48.5306 54.2616ZM53.2249 57.3423V53.5281H53.9584V57.3423C53.9584 58.5159 54.5452 59.2494 55.7188 59.2494C56.8924 59.2494 57.4792 58.5159 57.4792 57.3423V53.5281H58.2127V57.3423C58.2127 58.956 57.3325 59.9829 55.5721 59.9829C54.1051 59.9829 53.2249 58.8093 53.2249 57.3423ZM62.467 59.8362V54.1149H60.4132V53.3814H65.2543V54.1149H63.2005V59.8362H62.467ZM69.0685 59.8362V57.1956L66.5746 53.5281H67.4548L69.3619 56.4621L71.269 53.5281H72.1491L69.6553 57.1956V59.8362H69.0685ZM82.4181 59.8362L80.9511 54.7017L79.4841 59.8362H78.7506L76.9902 53.5281H77.8704L79.3374 58.8093L80.8044 53.5281H81.5379L83.0049 58.8093L84.4719 53.5281H85.3521L83.5917 59.8362H82.4181ZM86.9658 59.8362V53.5281H87.6993V59.8362H86.9658ZM91.8068 59.8362V54.1149H89.7531V53.3814H94.5941V54.1149H92.5403V59.8362H91.8068ZM101.196 59.8362V56.9022H97.3814V59.8362H96.6479V53.5281H97.3814V56.3154H101.196V53.5281H101.929V59.8362H101.196ZM104.13 56.6088C104.13 54.7017 105.45 53.2347 107.21 53.2347C109.117 53.2347 110.291 54.7017 110.291 56.6088C110.291 58.5159 108.971 59.9829 107.21 59.9829C105.45 59.9829 104.13 58.5159 104.13 56.6088ZM109.704 56.6088C109.704 55.1418 108.824 53.9682 107.357 53.9682C105.89 53.9682 105.01 55.1418 105.01 56.6088C105.01 58.0758 105.89 59.2494 107.357 59.2494C108.824 59.2494 109.704 58.0758 109.704 56.6088ZM112.785 57.3423V53.5281H113.518V57.3423C113.518 58.5159 114.105 59.2494 115.279 59.2494C116.452 59.2494 117.039 58.5159 117.039 57.3423V53.5281H117.773V57.3423C117.773 58.956 116.892 59.9829 115.132 59.9829C113.665 59.9829 112.785 58.8093 112.785 57.3423ZM121.88 59.8362V54.1149H119.826V53.3814H124.667V54.1149H122.76V59.8362H121.88ZM130.242 59.8362V53.5281H130.976V59.2494H133.91V59.9829L130.242 59.8362ZM136.11 59.8362V53.5281H136.844V59.8362H136.11ZM144.765 59.8362V54.555L142.565 59.8362H142.271L140.071 54.555V59.8362H139.337V53.5281H140.511L142.418 58.3692L144.325 53.5281H145.499V59.8362H144.765ZM147.993 59.8362V53.5281H148.726V59.8362H147.993ZM152.834 59.8362V54.1149H150.78V53.3814H155.621V54.1149H153.567V59.8362H152.834ZM157.235 58.8093L157.675 58.2225C158.115 58.6626 158.848 59.1027 159.729 59.1027C160.902 59.1027 161.196 58.5159 161.196 57.9291C161.196 56.3154 157.381 57.1956 157.381 54.8484C157.381 53.8215 158.262 53.088 159.582 53.088C160.609 53.088 161.342 53.3814 161.929 53.9682L161.489 54.555C161.049 53.9682 160.315 53.8215 159.582 53.8215C158.848 53.8215 158.262 54.2616 158.262 54.8484C158.262 56.3154 162.076 55.4352 162.076 57.9291C162.076 58.8093 161.489 59.8362 159.729 59.8362C158.555 59.9829 157.822 59.5428 157.235 58.8093Z" fill="black"/>
</g>
<defs>
<clipPath id="clip0_1_3013">
<rect width="192.91" height="60" fill="white" transform="translate(0.545166)"/>
</clipPath>
</defs>
</svg>
