<svg width="20" height="21" viewBox="0 0 20 21" fill="none" xmlns="http://www.w3.org/2000/svg">
<path fill-rule="evenodd" clip-rule="evenodd" d="M0 2C0 1.72386 0.223858 1.5 0.5 1.5H15.5C15.7761 1.5 16 1.72386 16 2C16 2.27614 15.7761 2.5 15.5 2.5H0.5C0.223858 2.5 0 2.27614 0 2Z" fill="#212121"/>
<path fill-rule="evenodd" clip-rule="evenodd" d="M0 10C0 9.72386 0.223858 9.5 0.5 9.5H19.5C19.7761 9.5 20 9.72386 20 10C20 10.2761 19.7761 10.5 19.5 10.5H0.5C0.223857 10.5 0 10.2761 0 10Z" fill="#212121"/>
<path fill-rule="evenodd" clip-rule="evenodd" d="M0 18C0 17.7239 0.223858 17.5 0.5 17.5H7.5C7.77614 17.5 8 17.7239 8 18C8 18.2761 7.77614 18.5 7.5 18.5H0.5C0.223858 18.5 0 18.2761 0 18Z" fill="#212121"/>
</svg>
