<svg width="16" height="17" viewBox="0 0 16 17" fill="none" xmlns="http://www.w3.org/2000/svg">
<g clip-path="url(#clip0_1_3257)">
<path d="M1.72004 7.02101C1.73515 6.9001 1.79389 6.78887 1.88522 6.70822C1.97655 6.62757 2.0942 6.58304 2.21604 6.58301H13.784C13.9059 6.58304 14.0235 6.62757 14.1149 6.70822C14.2062 6.78887 14.2649 6.9001 14.28 7.02101L14.942 12.316C15.0036 12.8084 14.9597 13.3083 14.8133 13.7825C14.6669 14.2567 14.4213 14.6943 14.0929 15.0664C13.7644 15.4384 13.3606 15.7363 12.9083 15.9404C12.4559 16.1445 11.9653 16.25 11.469 16.25H4.53004C4.03377 16.25 3.54318 16.1445 3.09081 15.9404C2.63844 15.7363 2.23464 15.4384 1.9062 15.0664C1.57776 14.6943 1.33219 14.2567 1.18579 13.7825C1.03939 13.3083 0.995505 12.8084 1.05704 12.316L1.72004 7.02101Z" stroke="#212121"/>
<path fill-rule="evenodd" clip-rule="evenodd" d="M11 4.75H12C12 3.68913 11.5786 2.67172 10.8284 1.92157C10.0783 1.17143 9.06087 0.75 8 0.75C6.93913 0.75 5.92172 1.17143 5.17157 1.92157C4.42143 2.67172 4 3.68913 4 4.75H5C5 3.95435 5.31607 3.19129 5.87868 2.62868C6.44129 2.06607 7.20435 1.75 8 1.75C8.79565 1.75 9.55871 2.06607 10.1213 2.62868C10.6839 3.19129 11 3.95435 11 4.75Z" fill="#212121"/>
</g>
<defs>
<clipPath id="clip0_1_3257">
<rect width="14.94" height="16" fill="white" transform="translate(0.530029 0.75)"/>
</clipPath>
</defs>
</svg>
