<svg width="16" height="17" viewBox="0 0 16 17" fill="none" xmlns="http://www.w3.org/2000/svg">
<path d="M7.99512 0.0800781C12.3293 0.0800781 15.8596 3.52857 15.9913 7.83094L15.9951 8.08008C15.9951 11.9697 13.2179 15.2118 9.53866 15.9313L9.53901 10.6928H11.6029L11.9125 8.20412H9.53901V6.6143C9.53901 5.8936 9.73112 5.40214 10.7266 5.40214H11.9951V3.17738C11.776 3.1477 11.0219 3.08008 10.1455 3.08008C8.31651 3.08008 7.06384 4.23946 7.06384 6.37022V8.20577H4.99512V10.6944H7.06384L7.0632 16.0264C3.16534 15.574 0.121022 12.3187 -0.00107574 8.32922L-0.00488281 8.08008C-0.00488281 3.74583 3.44361 0.21556 7.74598 0.0838852L7.99512 0.0800781Z" fill="#212121"/>
</svg>
