<svg width="16" height="17" viewBox="0 0 16 17" fill="none" xmlns="http://www.w3.org/2000/svg">
<g clip-path="url(#clip0_1_2872)">
<g clip-path="url(#clip1_1_2872)">
<g clip-path="url(#clip2_1_2872)">
<path d="M8 16.9502C12.4183 16.9502 16 13.3685 16 8.9502C16 4.53192 12.4183 0.950195 8 0.950195C3.58172 0.950195 0 4.53192 0 8.9502C0 13.3685 3.58172 16.9502 8 16.9502Z" fill="#F0F0F0"/>
<path d="M4.52173 11.7329L5.21738 16.4528C6.08401 16.7744 7.02142 16.9503 7.99998 16.9503C11.4397 16.9503 14.372 14.7793 15.5024 11.7329H4.52173Z" fill="black"/>
<path d="M4.52173 6.1676L5.21738 1.44773C6.08401 1.12613 7.02142 0.950195 7.99998 0.950195C11.4397 0.950195 14.372 3.1212 15.5024 6.1676H4.52173Z" fill="#6DA544"/>
<path d="M0 8.95016C0 12.3899 2.17103 15.3222 5.21741 16.4526V1.44775C2.17103 2.5781 0 5.51044 0 8.95016Z" fill="#A2001D"/>
</g>
</g>
</g>
<defs>
<clipPath id="clip0_1_2872">
<rect y="0.950195" width="16" height="16" rx="8" fill="white"/>
</clipPath>
<clipPath id="clip1_1_2872">
<rect width="16" height="16" fill="white" transform="translate(0 0.950195)"/>
</clipPath>
<clipPath id="clip2_1_2872">
<rect width="16" height="16" fill="white" transform="translate(0 0.950195)"/>
</clipPath>
</defs>
</svg>
