<svg width="16" height="17" viewBox="0 0 16 17" fill="none" xmlns="http://www.w3.org/2000/svg">
<g clip-path="url(#clip0_1_2574)">
<g clip-path="url(#clip1_1_2574)">
<g clip-path="url(#clip2_1_2574)">
<path d="M16 8.95026C16 7.9717 15.824 7.03429 15.5024 6.16767L8 5.81982L0.497594 6.16764C0.176031 7.03429 0 7.9717 0 8.95026C0 9.92882 0.176031 10.8662 0.497594 11.7329L8 12.0807L15.5024 11.7329C15.824 10.8662 16 9.92882 16 8.95026Z" fill="#D80027"/>
<path d="M7.99996 16.9503C11.4397 16.9503 14.372 14.7793 15.5024 11.7329H0.497559C1.6279 14.7793 4.56025 16.9503 7.99996 16.9503Z" fill="#6DA544"/>
<path d="M0.497559 6.1676H15.5024C14.372 3.1212 11.4397 0.950195 7.99996 0.950195C4.56025 0.950195 1.6279 3.1212 0.497559 6.1676Z" fill="#338AF3"/>
<path d="M8.17388 11.211C6.92526 11.211 5.91301 10.1987 5.91301 8.95011C5.91301 7.70148 6.92526 6.68923 8.17388 6.68923C8.5632 6.68923 8.92954 6.78767 9.24935 6.96098C8.7476 6.47032 8.06148 6.16748 7.30432 6.16748C5.76751 6.16748 4.52173 7.41329 4.52173 8.95007C4.52173 10.4869 5.76754 11.7327 7.30432 11.7327C8.06151 11.7327 8.74763 11.4298 9.24935 10.9392C8.92954 11.1125 8.5632 11.211 8.17388 11.211Z" fill="#F0F0F0"/>
<path d="M9.91312 7.38477L10.2126 8.22698L11.0199 7.84317L10.6361 8.65048L11.4783 8.94998L10.6361 9.24949L11.0199 10.0568L10.2126 9.67298L9.91312 10.5152L9.61368 9.67298L8.80634 10.0568L9.19015 9.24949L8.3479 8.94998L9.19015 8.65048L8.80634 7.84317L9.61368 8.22698L9.91312 7.38477Z" fill="#F0F0F0"/>
</g>
</g>
</g>
<defs>
<clipPath id="clip0_1_2574">
<rect y="0.950195" width="16" height="16" rx="8" fill="white"/>
</clipPath>
<clipPath id="clip1_1_2574">
<rect width="16" height="16" fill="white" transform="translate(0 0.950195)"/>
</clipPath>
<clipPath id="clip2_1_2574">
<rect width="16" height="16" fill="white" transform="translate(0 0.950195)"/>
</clipPath>
</defs>
</svg>
