<svg width="16" height="17" viewBox="0 0 16 17" fill="none" xmlns="http://www.w3.org/2000/svg">
<g clip-path="url(#clip0_1_2881)">
<g clip-path="url(#clip1_1_2881)">
<g clip-path="url(#clip2_1_2881)">
<path d="M8 16.9502C12.4183 16.9502 16 13.3685 16 8.9502C16 4.53192 12.4183 0.950195 8 0.950195C3.58172 0.950195 0 4.53192 0 8.9502C0 13.3685 3.58172 16.9502 8 16.9502Z" fill="#F0F0F0"/>
<path d="M1.65379 4.07959C1.02538 4.89718 0.551541 5.83953 0.275635 6.86325H4.43745L1.65379 4.07959Z" fill="#0052B4"/>
<path d="M15.7245 6.86321C15.4486 5.83953 14.9747 4.89718 14.3463 4.07959L11.5627 6.86321H15.7245Z" fill="#0052B4"/>
<path d="M0.275635 11.0371C0.551572 12.0608 1.02542 13.0031 1.65379 13.8207L4.43735 11.0371H0.275635Z" fill="#0052B4"/>
<path d="M12.8705 2.60377C12.0529 1.97537 11.1106 1.50152 10.0869 1.22559V5.38737L12.8705 2.60377Z" fill="#0052B4"/>
<path d="M3.12939 15.2963C3.94699 15.9247 4.88933 16.3985 5.91302 16.6744V12.5127L3.12939 15.2963Z" fill="#0052B4"/>
<path d="M5.91299 1.22559C4.8893 1.50152 3.94696 1.97537 3.12939 2.60374L5.91299 5.38734V1.22559Z" fill="#0052B4"/>
<path d="M10.0869 16.6744C11.1106 16.3985 12.0529 15.9247 12.8705 15.2963L10.0869 12.5127V16.6744Z" fill="#0052B4"/>
<path d="M11.5627 11.0371L14.3463 13.8207C14.9747 13.0032 15.4486 12.0608 15.7245 11.0371H11.5627Z" fill="#0052B4"/>
<path d="M15.9323 7.90673H9.04353H9.0435V1.01791C8.70191 0.973445 8.35366 0.950195 8 0.950195C7.64628 0.950195 7.29809 0.973445 6.95653 1.01791V7.90666V7.9067H0.0677188C0.02325 8.24829 0 8.59654 0 8.9502C0 9.30391 0.02325 9.6521 0.0677188 9.99366H6.95647H6.9565V16.8825C7.29809 16.9269 7.64628 16.9502 8 16.9502C8.35366 16.9502 8.70191 16.927 9.04347 16.8825V9.99373V9.9937H15.9323C15.9768 9.6521 16 9.30391 16 8.9502C16 8.59654 15.9768 8.24829 15.9323 7.90673Z" fill="#D80027"/>
<path d="M10.0869 11.0371L13.6568 14.607C13.821 14.4429 13.9776 14.2713 14.127 14.0934L11.0707 11.0371H10.0869V11.0371Z" fill="#D80027"/>
<path d="M5.91292 11.0371H5.91286L2.34302 14.607C2.50714 14.7711 2.67874 14.9278 2.85661 15.0772L5.91292 12.0208V11.0371Z" fill="#D80027"/>
<path d="M5.91293 6.86343V6.86336L2.34305 3.29346C2.17887 3.45758 2.02224 3.62918 1.8728 3.80705L4.92915 6.86339L5.91293 6.86343Z" fill="#D80027"/>
<path d="M10.0869 6.8634L13.6568 3.29346C13.4927 3.12927 13.3211 2.97265 13.1432 2.82324L10.0869 5.87959V6.8634Z" fill="#D80027"/>
</g>
</g>
</g>
<defs>
<clipPath id="clip0_1_2881">
<rect y="0.950195" width="16" height="16" rx="8" fill="white"/>
</clipPath>
<clipPath id="clip1_1_2881">
<rect width="16" height="16" fill="white" transform="translate(0 0.950195)"/>
</clipPath>
<clipPath id="clip2_1_2881">
<rect width="16" height="16" fill="white" transform="translate(0 0.950195)"/>
</clipPath>
</defs>
</svg>
