<svg width="16" height="17" viewBox="0 0 16 17" fill="none" xmlns="http://www.w3.org/2000/svg">
<g clip-path="url(#clip0_1_2902)">
<g clip-path="url(#clip1_1_2902)">
<g clip-path="url(#clip2_1_2902)">
<path d="M8 16.9502C12.4183 16.9502 16 13.3685 16 8.9502C16 4.53192 12.4183 0.950195 8 0.950195C3.58172 0.950195 0 4.53192 0 8.9502C0 13.3685 3.58172 16.9502 8 16.9502Z" fill="#F0F0F0"/>
<path d="M7.65234 8.95025H16.0002C16.0002 8.22819 15.9039 7.52869 15.7246 6.86328H7.65234V8.95025Z" fill="#D80027"/>
<path d="M7.65234 4.77642H14.826C14.3362 3.9773 13.7101 3.27095 12.98 2.68945H7.65234V4.77642Z" fill="#D80027"/>
<path d="M8.00014 16.9506C9.88292 16.9506 11.6135 16.2998 12.98 15.2114H3.02026C4.38683 16.2998 6.11736 16.9506 8.00014 16.9506Z" fill="#D80027"/>
<path d="M1.17423 13.1241H14.8259C15.219 12.4825 15.5239 11.7813 15.7244 11.0371H0.275635C0.476166 11.7813 0.781072 12.4825 1.17423 13.1241Z" fill="#D80027"/>
<path d="M3.70575 2.19951H4.43478L3.75666 2.69216L4.01569 3.48932L3.33759 2.99666L2.6595 3.48932L2.88325 2.80066C2.28619 3.29801 1.76287 3.8807 1.33162 4.52995H1.56522L1.13356 4.84354C1.06631 4.95573 1.00181 5.06969 0.94 5.18535L1.14612 5.81976L0.761563 5.54035C0.665969 5.74288 0.578531 5.94998 0.499938 6.16138L0.727031 6.86038H1.56522L0.887094 7.35304L1.14612 8.1502L0.468031 7.65754L0.0618437 7.95266C0.0211875 8.27948 0 8.61235 0 8.9502H8C8 4.53195 8 4.01107 8 0.950195C6.41963 0.950195 4.94641 1.40863 3.70575 2.19951ZM4.01569 8.1502L3.33759 7.65754L2.6595 8.1502L2.91853 7.35304L2.24041 6.86038H3.07859L3.33759 6.06323L3.59659 6.86038H4.43478L3.75666 7.35304L4.01569 8.1502ZM3.75666 5.0226L4.01569 5.81976L3.33759 5.3271L2.6595 5.81976L2.91853 5.0226L2.24041 4.52995H3.07859L3.33759 3.73279L3.59659 4.52995H4.43478L3.75666 5.0226ZM6.88525 8.1502L6.20716 7.65754L5.52906 8.1502L5.78809 7.35304L5.10997 6.86038H5.94816L6.20716 6.06323L6.46616 6.86038H7.30434L6.62622 7.35304L6.88525 8.1502ZM6.62622 5.0226L6.88525 5.81976L6.20716 5.3271L5.52906 5.81976L5.78809 5.0226L5.10997 4.52995H5.94816L6.20716 3.73279L6.46616 4.52995H7.30434L6.62622 5.0226ZM6.62622 2.69216L6.88525 3.48932L6.20716 2.99666L5.52906 3.48932L5.78809 2.69216L5.10997 2.19951H5.94816L6.20716 1.40235L6.46616 2.19951H7.30434L6.62622 2.69216Z" fill="#0052B4"/>
</g>
</g>
</g>
<defs>
<clipPath id="clip0_1_2902">
<rect y="0.950195" width="16" height="16" rx="8" fill="white"/>
</clipPath>
<clipPath id="clip1_1_2902">
<rect width="16" height="16" fill="white" transform="translate(0 0.950195)"/>
</clipPath>
<clipPath id="clip2_1_2902">
<rect width="16" height="16" fill="white" transform="translate(0 0.950195)"/>
</clipPath>
</defs>
</svg>
