<svg width="16" height="17" viewBox="0 0 16 17" fill="none" xmlns="http://www.w3.org/2000/svg">
<g clip-path="url(#clip0_1_2786)">
<g clip-path="url(#clip1_1_2786)">
<g clip-path="url(#clip2_1_2786)">
<path d="M0 8.95016C0 12.3898 2.171 15.3222 5.21734 16.4525L5.91303 8.95013L5.21734 1.44775C2.171 2.57813 0 5.51044 0 8.95016Z" fill="#6DA544"/>
<path d="M15.9999 8.9502C15.9999 4.53195 12.4182 0.950195 7.99994 0.950195C7.02138 0.950195 6.08397 1.12623 5.21729 1.44779V16.4526C6.08397 16.7742 7.02138 16.9502 7.99994 16.9502C12.4182 16.9502 15.9999 13.3684 15.9999 8.9502Z" fill="#D80027"/>
<path d="M5.21741 11.7327C6.75419 11.7327 8 10.4869 8 8.95007C8 7.41329 6.75419 6.16748 5.21741 6.16748C3.68062 6.16748 2.43481 7.41329 2.43481 8.95007C2.43481 10.4869 3.68062 11.7327 5.21741 11.7327Z" fill="#FFDA44"/>
<path d="M3.6521 7.55908V9.29821C3.6521 10.1626 4.35285 10.8634 5.21732 10.8634C6.08179 10.8634 6.78254 10.1627 6.78254 9.29821V7.55908H3.6521Z" fill="#D80027"/>
<path d="M5.21731 9.81991C4.92962 9.81991 4.69556 9.58585 4.69556 9.29816V8.60254H5.73903V9.2982C5.73903 9.58585 5.50496 9.81991 5.21731 9.81991Z" fill="#F0F0F0"/>
</g>
</g>
</g>
<defs>
<clipPath id="clip0_1_2786">
<rect y="0.950195" width="16" height="16" rx="8" fill="white"/>
</clipPath>
<clipPath id="clip1_1_2786">
<rect width="16" height="16" fill="white" transform="translate(0 0.950195)"/>
</clipPath>
<clipPath id="clip2_1_2786">
<rect width="16" height="16" fill="white" transform="translate(0 0.950195)"/>
</clipPath>
</defs>
</svg>
