<svg width="16" height="17" viewBox="0 0 16 17" fill="none" xmlns="http://www.w3.org/2000/svg">
<g clip-path="url(#clip0_1_2701)">
<g clip-path="url(#clip1_1_2701)">
<g clip-path="url(#clip2_1_2701)">
<path d="M8 16.9502C12.4183 16.9502 16 13.3685 16 8.9502C16 4.53192 12.4183 0.950195 8 0.950195C3.58172 0.950195 0 4.53192 0 8.9502C0 13.3685 3.58172 16.9502 8 16.9502Z" fill="#F0F0F0"/>
<path d="M11.0121 7.21129H9.00389L7.99983 5.47217L6.9958 7.21129H4.98755L5.99174 8.95042L4.98755 10.6895H6.9958L7.99983 12.4287L9.00389 10.6895H11.0121L10.0079 8.95042L11.0121 7.21129ZM9.23342 8.95042L8.61667 10.0188H7.38308L6.76624 8.95042L7.38305 7.88204H8.61664L9.23342 8.95042ZM7.99983 6.81364L8.22939 7.21126H7.77033L7.99983 6.81364ZM6.14939 7.88204H6.60852L6.37896 8.27967L6.14939 7.88204ZM6.14939 10.0188L6.37899 9.62117L6.60855 10.0188H6.14939ZM7.99983 11.0872L7.7703 10.6895H8.22939L7.99983 11.0872ZM9.85027 10.0188H9.39114L9.62074 9.62117L9.85027 10.0188ZM9.39114 7.88204H9.85027L9.62071 8.27967L9.39114 7.88204Z" fill="#0052B4"/>
<path d="M12.9798 2.68945H3.01998C2.28988 3.27095 1.66376 3.97727 1.17407 4.77642H14.8257C14.336 3.9773 13.7099 3.27095 12.9798 2.68945Z" fill="#0052B4"/>
<path d="M3.01998 15.211H12.9798C13.7099 14.6295 14.336 13.9232 14.8257 13.124H1.17407C1.66379 13.9231 2.28992 14.6295 3.01998 15.211Z" fill="#0052B4"/>
</g>
</g>
</g>
<defs>
<clipPath id="clip0_1_2701">
<rect y="0.950195" width="16" height="16" rx="8" fill="white"/>
</clipPath>
<clipPath id="clip1_1_2701">
<rect width="16" height="16" fill="white" transform="translate(0 0.950195)"/>
</clipPath>
<clipPath id="clip2_1_2701">
<rect width="16" height="16" fill="white" transform="translate(0 0.950195)"/>
</clipPath>
</defs>
</svg>
