<svg width="16" height="17" viewBox="0 0 16 17" fill="none" xmlns="http://www.w3.org/2000/svg">
<g clip-path="url(#clip0_1_2673)">
<g clip-path="url(#clip1_1_2673)">
<g clip-path="url(#clip2_1_2673)">
<path d="M8 16.9502C12.4183 16.9502 16 13.3685 16 8.9502C16 4.53192 12.4183 0.950195 8 0.950195C3.58172 0.950195 0 4.53192 0 8.9502C0 13.3685 3.58172 16.9502 8 16.9502Z" fill="#F0F0F0"/>
<path d="M8 6.86334H15.7244C15.5238 6.11915 15.2189 5.41787 14.8258 4.77637H8V6.86334Z" fill="#338AF3"/>
<path d="M3.01998 15.211H12.9798C13.7099 14.6295 14.336 13.9232 14.8257 13.124H1.17407C1.66379 13.9231 2.28992 14.6295 3.01998 15.211Z" fill="#338AF3"/>
<path d="M2.78248 2.88574C2.15354 3.42734 1.60982 4.06512 1.17407 4.77624H2.78248V2.88574Z" fill="#338AF3"/>
<path d="M8 8.95025C8 8.13538 8 7.45341 8 6.86328H4.86956V8.95025H2.78259V6.86328H0.275594C0.09625 7.52872 0 8.22816 0 8.95025C0 9.67234 0.09625 10.3718 0.275594 11.0372H15.7244C15.9038 10.3718 16 9.67234 16 8.95025H8Z" fill="#338AF3"/>
<path d="M8.00007 0.950195C6.88916 0.950195 5.83119 1.17685 4.86963 1.58607V4.77629H8.00007C8.00007 4.04779 8.00007 3.4282 8.00007 2.68932H12.98C11.6134 1.60095 9.88285 0.950195 8.00007 0.950195Z" fill="#338AF3"/>
</g>
</g>
</g>
<defs>
<clipPath id="clip0_1_2673">
<rect y="0.950195" width="16" height="16" rx="8" fill="white"/>
</clipPath>
<clipPath id="clip1_1_2673">
<rect width="16" height="16" fill="white" transform="translate(0 0.950195)"/>
</clipPath>
<clipPath id="clip2_1_2673">
<rect width="16" height="16" fill="white" transform="translate(0 0.950195)"/>
</clipPath>
</defs>
</svg>
