<svg width="16" height="17" viewBox="0 0 16 17" fill="none" xmlns="http://www.w3.org/2000/svg">
<g clip-path="url(#clip0_1_2726)">
<g clip-path="url(#clip1_1_2726)">
<g clip-path="url(#clip2_1_2726)">
<path d="M8 16.9502C12.4183 16.9502 16 13.3685 16 8.9502C16 4.53192 12.4183 0.950195 8 0.950195C3.58172 0.950195 0 4.53192 0 8.9502C0 13.3685 3.58172 16.9502 8 16.9502Z" fill="#338AF3"/>
<path d="M12.5218 9.03711H3.47827C3.47827 9.66145 4.02205 10.1675 4.64633 10.1675H4.60871C4.60871 10.7919 5.1148 11.298 5.73915 11.298C5.73915 11.9223 6.24524 12.4284 6.86958 12.4284H9.13046C9.7548 12.4284 10.2609 11.9223 10.2609 11.298C10.8852 11.298 11.3913 10.7919 11.3913 10.1675H11.3537C11.9779 10.1675 12.5218 9.66145 12.5218 9.03711Z" fill="#FFDA44"/>
<path d="M11.1305 7.55908C11.1305 9.28796 9.72894 10.6895 8.00007 10.6895C6.27116 10.6895 4.86963 9.28796 4.86963 7.55908" fill="#338AF3"/>
<path d="M10.3911 7.55877L9.41404 8.01837L9.93432 8.96462L8.87339 8.76165L8.73895 9.8334L7.99998 9.04512L7.26098 9.8334L7.12657 8.76165L6.06564 8.96456L6.58589 8.01834L5.60889 7.55877L6.58592 7.09921L6.06564 6.15299L7.12654 6.35593L7.26101 5.28418L7.99998 6.07246L8.73898 5.28418L8.87339 6.35593L9.93436 6.15299L9.41407 7.09924L10.3911 7.55877Z" fill="#FFDA44"/>
</g>
</g>
</g>
<defs>
<clipPath id="clip0_1_2726">
<rect y="0.950195" width="16" height="16" rx="8" fill="white"/>
</clipPath>
<clipPath id="clip1_1_2726">
<rect width="16" height="16" fill="white" transform="translate(0 0.950195)"/>
</clipPath>
<clipPath id="clip2_1_2726">
<rect width="16" height="16" fill="white" transform="translate(0 0.950195)"/>
</clipPath>
</defs>
</svg>
