<svg width="16" height="17" viewBox="0 0 16 17" fill="none" xmlns="http://www.w3.org/2000/svg">
<g clip-path="url(#clip0_1_2804)">
<g clip-path="url(#clip1_1_2804)">
<g clip-path="url(#clip2_1_2804)">
<path d="M8 16.9502C12.4183 16.9502 16 13.3685 16 8.9502C16 4.53192 12.4183 0.950195 8 0.950195C3.58172 0.950195 0 4.53192 0 8.9502C0 13.3685 3.58172 16.9502 8 16.9502Z" fill="#6DA544"/>
<path d="M4.52173 10.5151C4.52173 11.0914 4.98892 11.5586 5.5652 11.5586H8.69563C8.69563 12.0389 9.08495 12.4282 9.5652 12.4282H10.6087C11.0889 12.4282 11.4782 12.0389 11.4782 11.5586V10.5151H4.52173Z" fill="#F0F0F0"/>
<path d="M11.5653 5.47168V7.90646C11.5653 8.29005 11.2532 8.60212 10.8696 8.60212V9.64559C11.8286 9.64559 12.6088 8.8654 12.6088 7.90646V5.47168H11.5653Z" fill="#F0F0F0"/>
<path d="M4.08701 7.90646C4.08701 8.29005 3.77495 8.60212 3.39136 8.60212V9.64559C4.35033 9.64559 5.13048 8.8654 5.13048 7.90646V5.47168H4.08701V7.90646Z" fill="#F0F0F0"/>
<path d="M11.0435 5.47168H10V7.90646H11.0435V5.47168Z" fill="#F0F0F0"/>
<path d="M8.43494 6.86299C8.43494 6.9589 8.35691 7.0369 8.26103 7.0369C8.16516 7.0369 8.08712 6.95887 8.08712 6.86299V5.47168H7.04366V6.86299C7.04366 6.9589 6.96563 7.0369 6.86975 7.0369C6.77387 7.0369 6.69584 6.95887 6.69584 6.86299V5.47168H5.65234V6.86299C5.65234 7.53427 6.19847 8.0804 6.86975 8.0804C7.12828 8.0804 7.36803 7.99915 7.56541 7.86115C7.76275 7.99912 8.00253 8.0804 8.26106 8.0804C8.31313 8.0804 8.36431 8.07674 8.41466 8.07034C8.34072 8.37499 8.06634 8.60212 7.73931 8.60212V9.64559C8.69828 9.64559 9.47844 8.8654 9.47844 7.90646V6.86299V5.47168H8.43497V6.86299H8.43494Z" fill="#F0F0F0"/>
<path d="M7.21756 8.60205H5.65234V9.64552H7.21756V8.60205Z" fill="#F0F0F0"/>
</g>
</g>
</g>
<defs>
<clipPath id="clip0_1_2804">
<rect y="0.950195" width="16" height="16" rx="8" fill="white"/>
</clipPath>
<clipPath id="clip1_1_2804">
<rect width="16" height="16" fill="white" transform="translate(0 0.950195)"/>
</clipPath>
<clipPath id="clip2_1_2804">
<rect width="16" height="16" fill="white" transform="translate(0 0.950195)"/>
</clipPath>
</defs>
</svg>
