<svg width="16" height="17" viewBox="0 0 16 17" fill="none" xmlns="http://www.w3.org/2000/svg">
<g clip-path="url(#clip0_1_2601)">
<g clip-path="url(#clip1_1_2601)">
<g clip-path="url(#clip2_1_2601)">
<path d="M16 8.95026C16 7.9717 15.824 7.03429 15.5024 6.16767L8 5.81982L0.497594 6.16764C0.176031 7.03429 0 7.9717 0 8.95026C0 9.92882 0.176031 10.8662 0.497594 11.7329L8 12.0807L15.5024 11.7329C15.824 10.8662 16 9.92882 16 8.95026Z" fill="#F0F0F0"/>
<path d="M7.99996 16.9503C11.4397 16.9503 14.372 14.7793 15.5024 11.7329H0.497559C1.6279 14.7793 4.56025 16.9503 7.99996 16.9503Z" fill="#0052B4"/>
<path d="M0.497559 6.1676H15.5024C14.372 3.1212 11.4397 0.950195 7.99996 0.950195C4.56025 0.950195 1.6279 3.1212 0.497559 6.1676Z" fill="#D80027"/>
<path d="M10.0869 6.51538H8.69556L8.92746 4.77622L9.85496 4.08057L10.7825 4.77622V6.16754L10.0869 6.51538Z" fill="#338AF3"/>
<path d="M5.91291 6.51538H7.30422L7.07232 4.77622L6.14478 4.08057L5.21729 4.77622V6.16754L5.91291 6.51538Z" fill="#338AF3"/>
<path d="M8.92764 6.51538H7.07251V4.77622L8.00007 4.08057L8.92764 4.77622V6.51538Z" fill="#0052B4"/>
<path d="M5.21729 6.16748V9.99354C5.21729 10.9046 5.65735 11.7148 6.3361 12.2227L6.82307 12.1008L7.43757 12.719C7.61929 12.7564 7.80732 12.7762 7.99991 12.7762C8.19147 12.7762 8.37857 12.7567 8.55932 12.7196L9.26079 12.1356L9.66366 12.2215C10.3421 11.7137 10.7825 10.9043 10.7825 9.99354V6.16748H5.21729Z" fill="#F0F0F0"/>
<path d="M6.33032 6.16748H5.21729V7.28051H6.33032V6.16748Z" fill="#D80027"/>
<path d="M8.55639 6.16748H7.44336V7.28051H8.55639V6.16748Z" fill="#D80027"/>
<path d="M10.7825 6.16748H9.66943V7.28051H10.7825V6.16748Z" fill="#D80027"/>
<path d="M7.44335 7.28027H6.33032V8.3933H7.44335V7.28027Z" fill="#D80027"/>
<path d="M9.66943 7.28027H8.5564V8.3933H9.66943V7.28027Z" fill="#D80027"/>
<path d="M6.33032 8.39307H5.21729V9.5061H6.33032V8.39307Z" fill="#D80027"/>
<path d="M7.44335 9.50635H6.33032V10.6194H7.44335V9.50635Z" fill="#D80027"/>
<path d="M8.55639 8.39307H7.44336V9.5061H8.55639V8.39307Z" fill="#D80027"/>
<path d="M10.7825 8.39307H9.66943V9.5061H10.7825V8.39307Z" fill="#D80027"/>
<path d="M9.66943 9.50635H8.5564V10.6194H9.66943V9.50635Z" fill="#D80027"/>
<path d="M8.55639 10.6191H7.44336V11.7322H8.55639V10.6191Z" fill="#D80027"/>
<path d="M6.33028 10.6196H5.28906C5.38456 11.0334 5.57231 11.412 5.82975 11.7327H6.33028V10.6196Z" fill="#D80027"/>
<path d="M9.66943 11.7327H10.1699C10.4274 11.412 10.6151 11.0333 10.7106 10.6196H9.66943V11.7327Z" fill="#D80027"/>
<path d="M6.33032 11.7324V12.2181C6.65404 12.4617 7.03235 12.6363 7.44335 12.7201V11.7324H6.33032Z" fill="#D80027"/>
<path d="M8.5564 11.7324V12.7201C8.96743 12.6364 9.34571 12.4617 9.66943 12.2181V11.7324H8.5564Z" fill="#D80027"/>
</g>
</g>
</g>
<defs>
<clipPath id="clip0_1_2601">
<rect y="0.950195" width="16" height="16" rx="8" fill="white"/>
</clipPath>
<clipPath id="clip1_1_2601">
<rect width="16" height="16" fill="white" transform="translate(0 0.950195)"/>
</clipPath>
<clipPath id="clip2_1_2601">
<rect width="16" height="16" fill="white" transform="translate(0 0.950195)"/>
</clipPath>
</defs>
</svg>
