<svg width="16" height="17" viewBox="0 0 16 17" fill="none" xmlns="http://www.w3.org/2000/svg">
<g clip-path="url(#clip0_1_2829)">
<g clip-path="url(#clip1_1_2829)">
<g clip-path="url(#clip2_1_2829)">
<path d="M8 16.9502C12.4183 16.9502 16 13.3685 16 8.9502C16 4.53192 12.4183 0.950195 8 0.950195C3.58172 0.950195 0 4.53192 0 8.9502C0 13.3685 3.58172 16.9502 8 16.9502Z" fill="#F0F0F0"/>
<path d="M15.5024 6.16754H6.95653V4.08057H2.78259V6.16754H0.497594C0.176031 7.03416 0 7.97157 0 8.95013C0 9.92869 0.176031 10.8661 0.497594 11.7327L8 12.4284L15.5024 11.7327C15.824 10.8661 16 9.92869 16 8.95013C16 7.97157 15.824 7.03416 15.5024 6.16754Z" fill="#0052B4"/>
<path d="M7.99996 16.9503C11.4397 16.9503 14.372 14.7793 15.5024 11.7329H0.497559C1.6279 14.7793 4.56025 16.9503 7.99996 16.9503Z" fill="#D80027"/>
<path d="M2.78271 6.16764V6.86326C2.78271 8.46079 4.86968 8.95026 4.86968 8.95026C4.86968 8.95026 6.95665 8.46079 6.95665 6.86326V6.16764L6.261 6.86329L4.86968 5.81982L3.47837 6.86329L2.78271 6.16764Z" fill="#F0F0F0"/>
</g>
</g>
</g>
<defs>
<clipPath id="clip0_1_2829">
<rect y="0.950195" width="16" height="16" rx="8" fill="white"/>
</clipPath>
<clipPath id="clip1_1_2829">
<rect width="16" height="16" fill="white" transform="translate(0 0.950195)"/>
</clipPath>
<clipPath id="clip2_1_2829">
<rect width="16" height="16" fill="white" transform="translate(0 0.950195)"/>
</clipPath>
</defs>
</svg>
