<svg width="16" height="17" viewBox="0 0 16 17" fill="none" xmlns="http://www.w3.org/2000/svg">
<g clip-path="url(#clip0_1_2719)">
<g clip-path="url(#clip1_1_2719)">
<g clip-path="url(#clip2_1_2719)">
<path d="M8 16.9502C12.4183 16.9502 16 13.3685 16 8.9502C16 4.53192 12.4183 0.950195 8 0.950195C3.58172 0.950195 0 4.53192 0 8.9502C0 13.3685 3.58172 16.9502 8 16.9502Z" fill="#F0F0F0"/>
<path d="M7.99998 12.4287C9.92096 12.4287 11.4782 10.8714 11.4782 8.95042C11.4782 7.02943 9.92096 5.47217 7.99998 5.47217C6.07899 5.47217 4.52173 7.02943 4.52173 8.95042C4.52173 10.8714 6.07899 12.4287 7.99998 12.4287Z" fill="#D80027"/>
</g>
</g>
</g>
<defs>
<clipPath id="clip0_1_2719">
<rect y="0.950195" width="16" height="16" rx="8" fill="white"/>
</clipPath>
<clipPath id="clip1_1_2719">
<rect width="16" height="16" fill="white" transform="translate(0 0.950195)"/>
</clipPath>
<clipPath id="clip2_1_2719">
<rect width="16" height="16" fill="white" transform="translate(0 0.950195)"/>
</clipPath>
</defs>
</svg>
