<svg width="16" height="17" viewBox="0 0 16 17" fill="none" xmlns="http://www.w3.org/2000/svg">
<g clip-path="url(#clip0_1_2585)">
<g clip-path="url(#clip1_1_2585)">
<g clip-path="url(#clip2_1_2585)">
<path d="M10.7826 1.44779C9.91592 1.12623 8.97854 0.950195 7.99998 0.950195C7.02142 0.950195 6.08404 1.12623 5.21738 1.44779L4.52173 8.9502L5.21738 16.4526C6.08404 16.7742 7.02142 16.9502 7.99998 16.9502C8.97854 16.9502 9.91592 16.7742 10.7826 16.4526L11.4782 8.9502L10.7826 1.44779Z" fill="#FFDA44"/>
<path d="M16.0001 8.95013C16.0001 5.51044 13.8291 2.57807 10.7827 1.44775V16.4526C13.8291 15.3222 16.0001 12.3899 16.0001 8.95013Z" fill="#D80027"/>
<path d="M0 8.95013C0 12.3899 2.171 15.3222 5.21741 16.4526V1.44775C2.171 2.57807 0 5.51044 0 8.95013Z" fill="black"/>
</g>
</g>
</g>
<defs>
<clipPath id="clip0_1_2585">
<rect y="0.950195" width="16" height="16" rx="8" fill="white"/>
</clipPath>
<clipPath id="clip1_1_2585">
<rect width="16" height="16" fill="white" transform="translate(0 0.950195)"/>
</clipPath>
<clipPath id="clip2_1_2585">
<rect width="16" height="16" fill="white" transform="translate(0 0.950195)"/>
</clipPath>
</defs>
</svg>
