<svg width="16" height="17" viewBox="0 0 16 17" fill="none" xmlns="http://www.w3.org/2000/svg">
<g clip-path="url(#clip0_1_2847)">
<g clip-path="url(#clip1_1_2847)">
<g clip-path="url(#clip2_1_2847)">
<path d="M8 16.9502C12.4183 16.9502 16 13.3685 16 8.9502C16 4.53192 12.4183 0.950195 8 0.950195C3.58172 0.950195 0 4.53192 0 8.9502C0 13.3685 3.58172 16.9502 8 16.9502Z" fill="#FFDA44"/>
<path d="M6.26077 7.90673H15.9321C15.4208 3.98151 12.0645 0.950195 7.99987 0.950195C7.40255 0.950195 6.82071 1.01623 6.26074 1.14035L6.26077 7.90673Z" fill="#0052B4"/>
<path d="M4.17381 7.90663V1.92285C1.97713 3.12141 0.404596 5.31988 0.067627 7.90666L4.17381 7.90663Z" fill="#0052B4"/>
<path d="M4.17378 9.99365H0.067627C0.404596 12.5804 1.97713 14.7789 4.17381 15.9774L4.17378 9.99365Z" fill="#0052B4"/>
<path d="M6.26074 9.99368V16.76C6.82071 16.8842 7.40255 16.9502 7.99987 16.9502C12.0645 16.9502 15.4208 13.9189 15.9321 9.99365H6.26074V9.99368Z" fill="#0052B4"/>
</g>
</g>
</g>
<defs>
<clipPath id="clip0_1_2847">
<rect y="0.950195" width="16" height="16" rx="8" fill="white"/>
</clipPath>
<clipPath id="clip1_1_2847">
<rect width="16" height="16" fill="white" transform="translate(0 0.950195)"/>
</clipPath>
<clipPath id="clip2_1_2847">
<rect width="16" height="16" fill="white" transform="translate(0 0.950195)"/>
</clipPath>
</defs>
</svg>
