<svg width="16" height="17" viewBox="0 0 16 17" fill="none" xmlns="http://www.w3.org/2000/svg">
<g clip-path="url(#clip0_1_2657)">
<g clip-path="url(#clip1_1_2657)">
<g clip-path="url(#clip2_1_2657)">
<path d="M8 16.9502C12.4183 16.9502 16 13.3685 16 8.9502C16 4.53192 12.4183 0.950195 8 0.950195C3.58172 0.950195 0 4.53192 0 8.9502C0 13.3685 3.58172 16.9502 8 16.9502Z" fill="#F0F0F0"/>
<path d="M16.0001 8.95016C16.0001 5.51044 13.8291 2.5781 10.7827 1.44775V16.4526C13.8291 15.3222 16.0001 12.3899 16.0001 8.95016Z" fill="#D80027"/>
<path d="M0 8.95016C0 12.3899 2.17103 15.3222 5.21741 16.4526V1.44775C2.17103 2.5781 0 5.51044 0 8.95016Z" fill="#0052B4"/>
</g>
</g>
</g>
<defs>
<clipPath id="clip0_1_2657">
<rect y="0.950195" width="16" height="16" rx="8" fill="white"/>
</clipPath>
<clipPath id="clip1_1_2657">
<rect width="16" height="16" fill="white" transform="translate(0 0.950195)"/>
</clipPath>
<clipPath id="clip2_1_2657">
<rect width="16" height="16" fill="white" transform="translate(0 0.950195)"/>
</clipPath>
</defs>
</svg>
