<svg width="16" height="17" viewBox="0 0 16 17" fill="none" xmlns="http://www.w3.org/2000/svg">
<g clip-path="url(#clip0_1_2914)">
<g clip-path="url(#clip1_1_2914)">
<g clip-path="url(#clip2_1_2914)">
<path d="M0.37775 6.51532C0.132688 7.28307 -3.12445e-05 8.10098 5.51734e-09 8.95001C-3.12445e-05 9.79907 0.132719 10.617 0.377781 11.3848L8 11.7327L15.6222 11.3849C15.8673 10.6171 16 9.79907 16 8.95007C16 8.10101 15.8673 7.28307 15.6222 6.51529L8 6.16748L0.37775 6.51532Z" fill="#F0F0F0"/>
<path d="M15.6222 6.51529L8 6.16748L0.377748 6.51529C0.305123 6.74292 0.242592 6.97501 0.190186 7.21095H15.8097C15.7573 6.97498 15.6948 6.74286 15.6222 6.51529Z" fill="#D80027"/>
<path d="M0.190186 10.689C0.242529 10.9249 0.305061 11.157 0.377686 11.3846L0.378436 11.3846L7.99987 11.7324L15.6221 11.3846C15.6947 11.157 15.7572 10.9249 15.8096 10.689H0.190186Z" fill="#D80027"/>
<path d="M7.99987 16.95C11.5691 16.95 14.5919 14.6124 15.6221 11.3848H0.377686C1.40784 14.6124 4.43072 16.95 7.99987 16.95Z" fill="#6DA544"/>
<path d="M7.9999 0.950195C4.43072 0.950227 1.4079 3.28782 0.377686 6.51541L15.6221 6.51545C14.592 3.28779 11.5692 0.950164 7.9999 0.950195Z" fill="#338AF3"/>
<path d="M3.65592 4.25464C3.65592 3.50536 4.18251 2.87942 4.88573 2.72586C4.77767 2.70223 4.66551 2.68945 4.55033 2.68945C3.68589 2.68945 2.98511 3.3902 2.98511 4.25467C2.98511 5.11914 3.68583 5.81989 4.55033 5.81989C4.66551 5.81989 4.77764 5.80708 4.88573 5.78348C4.18254 5.62986 3.65592 5.00392 3.65592 4.25464Z" fill="#F0F0F0"/>
<path d="M5.81094 4.96631L5.91687 5.2924H6.25975L5.98237 5.49396L6.08831 5.82006L5.81094 5.61853L5.5335 5.82006L5.63947 5.49396L5.36206 5.2924H5.70494L5.81094 4.96631Z" fill="#F0F0F0"/>
<path d="M6.90511 4.96631L7.01108 5.2924H7.35395L7.07655 5.49396L7.18252 5.82006L6.90511 5.61853L6.62771 5.82006L6.73367 5.49396L6.4563 5.2924H6.79914L6.90511 4.96631Z" fill="#F0F0F0"/>
<path d="M7.99966 4.96631L8.10559 5.2924H8.4485L8.17109 5.49396L8.27703 5.82006L7.99966 5.61853L7.72222 5.82006L7.82822 5.49396L7.55078 5.2924H7.89369L7.99966 4.96631Z" fill="#F0F0F0"/>
<path d="M9.09414 4.96631L9.20011 5.2924H9.54295L9.26558 5.49396L9.37154 5.82006L9.09414 5.61853L8.8167 5.82006L8.9227 5.49396L8.64526 5.2924H8.98814L9.09414 4.96631Z" fill="#F0F0F0"/>
<path d="M10.1883 4.96631L10.2943 5.2924H10.6372L10.3598 5.49396L10.4658 5.82006L10.1883 5.61853L9.91091 5.82006L10.0169 5.49396L9.7395 5.2924H10.0823L10.1883 4.96631Z" fill="#F0F0F0"/>
<path d="M6.90511 3.82764L7.01108 4.1537H7.35395L7.07655 4.35529L7.18252 4.68136L6.90511 4.47982L6.62771 4.68136L6.73367 4.35529L6.4563 4.1537H6.79914L6.90511 3.82764Z" fill="#F0F0F0"/>
<path d="M7.99966 3.82764L8.10559 4.1537H8.4485L8.17109 4.35529L8.27703 4.68136L7.99966 4.47982L7.72222 4.68136L7.82822 4.35529L7.55078 4.1537H7.89369L7.99966 3.82764Z" fill="#F0F0F0"/>
<path d="M9.09414 3.82764L9.20011 4.1537H9.54295L9.26558 4.35529L9.37154 4.68136L9.09414 4.47982L8.8167 4.68136L8.9227 4.35529L8.64526 4.1537H8.98814L9.09414 3.82764Z" fill="#F0F0F0"/>
<path d="M10.1883 3.82764L10.2943 4.1537H10.6372L10.3598 4.35529L10.4658 4.68136L10.1883 4.47982L9.91091 4.68136L10.0169 4.35529L9.7395 4.1537H10.0823L10.1883 3.82764Z" fill="#F0F0F0"/>
<path d="M7.99966 2.68945L8.10559 3.01558H8.4485L8.17109 3.21711L8.27703 3.54323L7.99966 3.3417L7.72222 3.54323L7.82822 3.21711L7.55078 3.01558H7.89369L7.99966 2.68945Z" fill="#F0F0F0"/>
<path d="M9.09414 2.68945L9.20011 3.01558H9.54295L9.26558 3.21711L9.37154 3.54323L9.09414 3.3417L8.8167 3.54323L8.9227 3.21711L8.64526 3.01558H8.98814L9.09414 2.68945Z" fill="#F0F0F0"/>
<path d="M10.1883 2.68945L10.2943 3.01558H10.6372L10.3598 3.21711L10.4658 3.54323L10.1883 3.3417L9.91091 3.54323L10.0169 3.21711L9.7395 3.01558H10.0823L10.1883 2.68945Z" fill="#F0F0F0"/>
</g>
</g>
</g>
<defs>
<clipPath id="clip0_1_2914">
<rect y="0.950195" width="16" height="16" rx="8" fill="white"/>
</clipPath>
<clipPath id="clip1_1_2914">
<rect width="16" height="16" fill="white" transform="translate(0 0.950195)"/>
</clipPath>
<clipPath id="clip2_1_2914">
<rect width="16" height="16" fill="white" transform="translate(0 0.950195)"/>
</clipPath>
</defs>
</svg>
