<svg width="16" height="17" viewBox="0 0 16 17" fill="none" xmlns="http://www.w3.org/2000/svg">
<g clip-path="url(#clip0_1_2760)">
<g clip-path="url(#clip1_1_2760)">
<g clip-path="url(#clip2_1_2760)">
<path d="M11.4783 1.74401C10.4266 1.23545 9.24664 0.950195 8.00008 0.950195C6.75352 0.950195 5.57358 1.23545 4.52183 1.74401L3.82617 8.9502L4.52183 16.1564C5.57358 16.6649 6.75352 16.9502 8.00008 16.9502C9.24664 16.9502 10.4266 16.6649 11.4783 16.1564L12.174 8.9502L11.4783 1.74401Z" fill="#FFDA44"/>
<path d="M4.52175 1.74414C1.84581 3.03811 0 5.77839 0 8.95005C0 12.1217 1.84581 14.862 4.52175 16.156V1.74414Z" fill="#0052B4"/>
<path d="M11.4783 1.74414V16.156C14.1542 14.862 16 12.1217 16 8.95005C16 5.77839 14.1542 3.03811 11.4783 1.74414Z" fill="#D80027"/>
<path d="M10.7825 7.24456H8.86944C8.86944 6.76431 8.48013 6.375 7.99988 6.375C7.51963 6.375 7.13032 6.76431 7.13032 7.24456H5.21729C5.21729 7.71741 5.62919 8.10069 6.10197 8.10069H6.07347C6.07347 8.57356 6.45679 8.95691 6.92966 8.95691C6.92966 9.37556 7.23035 9.72344 7.62747 9.79781L6.95279 11.321C7.27607 11.4524 7.62938 11.5254 7.99988 11.5254C8.37035 11.5254 8.72369 11.4524 9.04694 11.321L8.37228 9.79781C8.76941 9.72344 9.0701 9.37556 9.0701 8.95691C9.54297 8.95691 9.92628 8.57356 9.92628 8.10069H9.89775C10.3706 8.10069 10.7825 7.71738 10.7825 7.24456Z" fill="#FF9811"/>
<path d="M8.00007 8.42822L6.86963 8.94997V9.99344L8.00007 10.6891L9.1305 9.99344V8.94997L8.00007 8.42822Z" fill="#0052B4"/>
<path d="M9.1305 7.90674H6.86963V8.95021H9.1305V7.90674Z" fill="#D80027"/>
</g>
</g>
</g>
<defs>
<clipPath id="clip0_1_2760">
<rect y="0.950195" width="16" height="16" rx="8" fill="white"/>
</clipPath>
<clipPath id="clip1_1_2760">
<rect width="16" height="16" fill="white" transform="translate(0 0.950195)"/>
</clipPath>
<clipPath id="clip2_1_2760">
<rect width="16" height="16" fill="white" transform="translate(0 0.950195)"/>
</clipPath>
</defs>
</svg>
