<svg width="16" height="17" viewBox="0 0 16 17" fill="none" xmlns="http://www.w3.org/2000/svg">
<g clip-path="url(#clip0_1_2817)">
<g clip-path="url(#clip1_1_2817)">
<g clip-path="url(#clip2_1_2817)">
<path d="M8 16.9502C12.4183 16.9502 16 13.3685 16 8.9502C16 4.53192 12.4183 0.950195 8 0.950195C3.58172 0.950195 0 4.53192 0 8.9502C0 13.3685 3.58172 16.9502 8 16.9502Z" fill="#F0F0F0"/>
<path d="M8 16.9501C12.4183 16.9501 16 13.3683 16 8.95007C16 7.97151 15.824 7.03411 15.5024 6.16748H0.497594C0.176031 7.03411 0 7.97151 0 8.95007C0 13.3683 3.58175 16.9501 8 16.9501Z" fill="#0052B4"/>
<path d="M7.99996 16.9503C11.4397 16.9503 14.372 14.7793 15.5024 11.7329H0.497559C1.6279 14.7793 4.56025 16.9503 7.99996 16.9503Z" fill="#D80027"/>
<path d="M2.0686 5.47217V9.46298C2.0686 11.7331 5.03426 12.4287 5.03426 12.4287C5.03426 12.4287 7.99988 11.7331 7.99988 9.46298V5.47217H2.0686Z" fill="#F0F0F0"/>
<path d="M2.7644 5.47217V9.46298C2.7644 9.72948 2.82359 9.98117 2.94084 10.2171C4.1044 10.2171 5.84353 10.2171 7.12794 10.2171C7.24519 9.9812 7.30437 9.72948 7.30437 9.46298V5.47217H2.7644Z" fill="#D80027"/>
<path d="M6.42566 8.25442H5.38222V7.55876H6.07788V6.86311H5.38222V6.16748H4.68657V6.86311H3.99094V7.55876H4.68657V8.25442H3.64307V8.95007H4.68657V9.64573H5.38222V8.95007H6.42566V8.25442Z" fill="#F0F0F0"/>
<path d="M3.88976 11.1878C4.33804 11.4695 4.79861 11.6331 5.03439 11.7059C5.27017 11.6331 5.73073 11.4695 6.17901 11.1878C6.63107 10.9037 6.94798 10.5788 7.12792 10.2167C6.92945 10.0763 6.68729 9.99351 6.4257 9.99351C6.33045 9.99351 6.23792 10.0048 6.14895 10.0255C5.96042 9.59713 5.53245 9.29785 5.03442 9.29785C4.53639 9.29785 4.10839 9.59713 3.91989 10.0255C3.83092 10.0048 3.73836 9.99351 3.64314 9.99351C3.38154 9.99351 3.13939 10.0763 2.94092 10.2167C3.12076 10.5787 3.43767 10.9037 3.88976 11.1878Z" fill="#0052B4"/>
</g>
</g>
</g>
<defs>
<clipPath id="clip0_1_2817">
<rect y="0.950195" width="16" height="16" rx="8" fill="white"/>
</clipPath>
<clipPath id="clip1_1_2817">
<rect width="16" height="16" fill="white" transform="translate(0 0.950195)"/>
</clipPath>
<clipPath id="clip2_1_2817">
<rect width="16" height="16" fill="white" transform="translate(0 0.950195)"/>
</clipPath>
</defs>
</svg>
