<svg width="16" height="17" viewBox="0 0 16 17" fill="none" xmlns="http://www.w3.org/2000/svg">
<g clip-path="url(#clip0_1_2649)">
<g clip-path="url(#clip1_1_2649)">
<g clip-path="url(#clip2_1_2649)">
<path d="M0 8.95026C0 9.92882 0.176031 10.8662 0.497594 11.7329L8 12.0807L15.5024 11.7329C15.824 10.8662 16 9.92882 16 8.95026C16 7.9717 15.824 7.03432 15.5024 6.16767L8 5.81982L0.497594 6.16764C0.176031 7.03432 0 7.9717 0 8.95026Z" fill="black"/>
<path d="M7.99996 0.950195C4.56025 0.950195 1.6279 3.1212 0.497559 6.1676H15.5024C14.372 3.1212 11.4397 0.950195 7.99996 0.950195Z" fill="#0052B4"/>
<path d="M15.5024 11.7329H0.497559C1.6279 14.7793 4.56025 16.9503 7.99996 16.9503C11.4397 16.9503 14.372 14.7793 15.5024 11.7329Z" fill="#F0F0F0"/>
</g>
</g>
</g>
<defs>
<clipPath id="clip0_1_2649">
<rect y="0.950195" width="16" height="16" rx="8" fill="white"/>
</clipPath>
<clipPath id="clip1_1_2649">
<rect width="16" height="16" fill="white" transform="translate(0 0.950195)"/>
</clipPath>
<clipPath id="clip2_1_2649">
<rect width="16" height="16" fill="white" transform="translate(0 0.950195)"/>
</clipPath>
</defs>
</svg>
