<svg width="24" height="24" viewBox="0 0 24 24" fill="none" xmlns="http://www.w3.org/2000/svg">
<g clip-path="url(#clip0_1_3026)">
<g clip-path="url(#clip1_1_3026)">
<path fill-rule="evenodd" clip-rule="evenodd" d="M16.947 5.947V6H17.947V5.947C17.947 4.36976 17.3204 2.85711 16.2051 1.74184C15.0899 0.626557 13.5772 0 12 0C10.4227 0 8.91008 0.626557 7.7948 1.74184C6.67952 2.85711 6.05297 4.36976 6.05297 5.947V6H7.05297V5.947C7.05297 4.63497 7.57417 3.37669 8.50191 2.44894C9.42965 1.5212 10.6879 1 12 1C13.312 1 14.5703 1.5212 15.498 2.44894C16.4258 3.37669 16.947 4.63497 16.947 5.947ZM2.86297 9.877C2.89298 9.63484 3.0105 9.412 3.1934 9.25047C3.3763 9.08894 3.61195 8.99986 3.85597 9H20.145C20.3888 9.0001 20.6242 9.08929 20.8069 9.2508C20.9896 9.41231 21.107 9.63501 21.137 9.877L22.346 19.631C22.3983 20.053 22.3603 20.4812 22.2345 20.8874C22.1087 21.2935 21.8981 21.6683 21.6165 21.9869C21.3349 22.3054 20.9888 22.5605 20.6011 22.7352C20.2135 22.9098 19.7931 23.0001 19.368 23H4.63197C4.20687 23 3.78663 22.9096 3.3991 22.7349C3.01157 22.5601 2.6656 22.305 2.38411 21.9865C2.10263 21.6679 1.89206 21.2932 1.76635 20.8871C1.64065 20.481 1.60268 20.0529 1.65497 19.631L2.86297 9.877ZM1.87097 9.754C1.93097 9.26984 2.16588 8.82431 2.53146 8.50127C2.89705 8.17823 3.3681 7.99995 3.85597 8H20.145C20.6328 7.99995 21.1039 8.17823 21.4695 8.50127C21.8351 8.82431 22.07 9.26984 22.13 9.754L23.338 19.508C23.4077 20.0705 23.357 20.6415 23.1894 21.183C23.0218 21.7245 22.7409 22.2242 22.3655 22.6489C21.9902 23.0737 21.5288 23.4138 21.012 23.6467C20.4952 23.8796 19.9348 24.0001 19.368 24H4.63197C4.06511 24.0001 3.50472 23.8796 2.98793 23.6467C2.47115 23.4138 2.00977 23.0737 1.63438 22.6489C1.259 22.2242 0.978174 21.7245 0.810528 21.183C0.642882 20.6415 0.592242 20.0705 0.661965 19.508L1.87097 9.754Z" fill="#212121"/>
</g>
</g>
<defs>
<clipPath id="clip0_1_3026">
<rect width="24" height="24" fill="white"/>
</clipPath>
<clipPath id="clip1_1_3026">
<rect width="22.74" height="24" fill="white" transform="translate(0.629883)"/>
</clipPath>
</defs>
</svg>
