<svg width="16" height="17" viewBox="0 0 16 17" fill="none" xmlns="http://www.w3.org/2000/svg">
<mask id="mask0_1_4887" style="mask-type:luminance" maskUnits="userSpaceOnUse" x="0" y="0" width="16" height="17">
<path d="M0 0.5H16V16.5H0V0.5Z" fill="white"/>
</mask>
<g mask="url(#mask0_1_4887)">
<path d="M8.00001 3.83299V15.167M5.66601 6.49999C5.20463 6.49979 4.75366 6.36279 4.37014 6.10632C3.98661 5.84984 3.68774 5.48541 3.51131 5.05909C3.33488 4.63278 3.28883 4.16372 3.37896 3.71123C3.46909 3.25874 3.69137 2.84313 4.01768 2.51695C4.344 2.19078 4.7597 1.96868 5.21223 1.87874C5.66476 1.7888 6.1338 1.83506 6.56004 2.01167C6.98628 2.18828 7.35059 2.48731 7.6069 2.87094C7.8632 3.25458 8.00001 3.7056 8.00001 4.16699C8.00001 3.70556 8.13684 3.2545 8.39319 2.87084C8.64954 2.48718 9.01391 2.18815 9.44021 2.01157C9.86651 1.835 10.3356 1.78879 10.7882 1.87881C11.2407 1.96883 11.6564 2.19103 11.9827 2.51731C12.309 2.84358 12.5312 3.25928 12.6212 3.71184C12.7112 4.1644 12.665 4.63349 12.4884 5.05979C12.3118 5.48609 12.0128 5.85045 11.6292 6.1068C11.2455 6.36316 10.7944 6.49999 10.333 6.49999M2.66701 9.16699H13.334V13.833C13.334 14.57 12.737 15.167 12 15.167H4.00001C3.82487 15.167 3.65145 15.1325 3.48966 15.0654C3.32787 14.9984 3.18087 14.9001 3.05708 14.7762C2.93329 14.6523 2.83512 14.5053 2.76819 14.3434C2.70126 14.1816 2.66688 14.0081 2.66701 13.833V9.16699ZM1.33301 6.49999H14.666V9.16699H1.33301V6.49999Z" stroke="#5B24C9" stroke-linecap="round" stroke-linejoin="round"/>
</g>
</svg>
