<svg width="19" height="19" viewBox="0 0 19 19" fill="none" xmlns="http://www.w3.org/2000/svg">
<g clip-path="url(#clip0_1_11205)">
<path fill-rule="evenodd" clip-rule="evenodd" d="M13.3972 4.41961C13.2845 2.34645 11.5587 0.700195 9.44636 0.700195C7.26116 0.700195 5.38109 2.46741 5.38109 4.64099L5.3802 5.7638L2.46462 5.76544C1.87667 5.76544 1.38688 6.21426 1.33806 6.79705L0.333975 17.4824L0.330078 17.5758C0.330078 18.1968 0.836211 18.7002 1.46056 18.7002L17.1996 18.6947L17.2934 18.6909C17.9156 18.6393 18.378 18.0957 18.3261 17.4769L17.4461 6.79156C17.3972 6.20877 16.9074 5.7605 16.3195 5.7605L6.51083 5.7638L6.51157 4.64099L6.51758 4.45642C6.61326 2.99003 7.94794 1.82465 9.44636 1.82465C11.0072 1.82465 12.2725 3.0835 12.2725 4.63605V5.7605H13.403V4.63605L13.3972 4.41961ZM13.5036 9.75018C13.6946 9.94159 13.7159 10.239 13.5673 10.4539L13.5036 10.5302L8.86355 15.1796L5.65538 11.965C5.44048 11.7497 5.44048 11.4003 5.65538 11.185C5.84639 10.9936 6.14291 10.9724 6.35737 11.1213L6.43356 11.185L8.86299 13.6185L12.7254 9.75018C12.9403 9.53485 13.2887 9.53485 13.5036 9.75018Z" fill="#4BC800"/>
</g>
<defs>
<clipPath id="clip0_1_11205">
<rect width="18" height="18" fill="white" transform="translate(0.330078 0.700195)"/>
</clipPath>
</defs>
</svg>
