<svg width="34" height="34" viewBox="0 0 34 34" fill="none" xmlns="http://www.w3.org/2000/svg">
<path fill-rule="evenodd" clip-rule="evenodd" d="M29.75 8.5H4.25V12.75C5.81481 12.75 7.08333 14.0185 7.08333 15.5833V21.25C7.08333 25.2569 7.08333 27.2604 8.32813 28.5052C9.57293 29.75 11.5764 29.75 15.5833 29.75H18.4167C22.4236 29.75 24.4271 29.75 25.6719 28.5052C26.9167 27.2604 26.9167 25.2569 26.9167 21.25V15.5833C26.9167 14.0185 28.1852 12.75 29.75 12.75V8.5ZM14.8747 15.5835C14.8747 14.8011 14.2404 14.1668 13.458 14.1668C12.6756 14.1668 12.0413 14.8011 12.0413 15.5835V22.6668C12.0413 23.4492 12.6756 24.0835 13.458 24.0835C14.2404 24.0835 14.8747 23.4492 14.8747 22.6668V15.5835ZM21.958 15.5835C21.958 14.8011 21.3237 14.1668 20.5413 14.1668C19.7589 14.1668 19.1247 14.8011 19.1247 15.5835V22.6668C19.1247 23.4492 19.7589 24.0835 20.5413 24.0835C21.3237 24.0835 21.958 23.4492 21.958 22.6668V15.5835Z" fill="#212121"/>
<path d="M14.2629 4.775C14.4243 4.62439 14.78 4.4913 15.2749 4.39637C15.7697 4.30145 16.376 4.25 16.9997 4.25C17.6234 4.25 18.2297 4.30145 18.7245 4.39637C19.2193 4.4913 19.575 4.62439 19.7365 4.775" stroke="#212121" stroke-width="2.83333" stroke-linecap="round"/>
</svg>
