<svg width="24" height="24" viewBox="0 0 24 24" fill="none" xmlns="http://www.w3.org/2000/svg">
<g clip-path="url(#clip0_1_3022)">
<path fill-rule="evenodd" clip-rule="evenodd" d="M16 5C16 6.06087 15.5786 7.07828 14.8284 7.82843C14.0783 8.57857 13.0609 9 12 9C10.9391 9 9.92172 8.57857 9.17157 7.82843C8.42143 7.07828 8 6.06087 8 5C8 3.93913 8.42143 2.92172 9.17157 2.17157C9.92172 1.42143 10.9391 1 12 1C13.0609 1 14.0783 1.42143 14.8284 2.17157C15.5786 2.92172 16 3.93913 16 5ZM17 5C17 6.32608 16.4732 7.59785 15.5355 8.53553C14.5979 9.47322 13.3261 10 12 10C10.6739 10 9.40215 9.47322 8.46447 8.53553C7.52678 7.59785 7 6.32608 7 5C7 3.67392 7.52678 2.40215 8.46447 1.46447C9.40215 0.526784 10.6739 0 12 0C13.3261 0 14.5979 0.526784 15.5355 1.46447C16.4732 2.40215 17 3.67392 17 5ZM24 24H0V23.998C0 23.662 0.014 23.329 0.041 23C0.55 16.84 5.71 12 12 12C18.29 12 23.45 16.84 23.959 23C23.986 23.33 24 23.663 24 24ZM1.045 23C1.55 17.393 6.262 13 12 13C17.738 13 22.45 17.393 22.955 23H1.045Z" fill="#212121"/>
</g>
<defs>
<clipPath id="clip0_1_3022">
<rect width="24" height="24" fill="white"/>
</clipPath>
</defs>
</svg>
