<svg width="17" height="17" viewBox="0 0 17 17" fill="none" xmlns="http://www.w3.org/2000/svg">
<g clip-path="url(#clip0_1_11210)">
<path d="M8.33008 16.7002C12.7484 16.7002 16.3301 13.1185 16.3301 8.7002C16.3301 4.28192 12.7484 0.700195 8.33008 0.700195C3.9118 0.700195 0.330078 4.28192 0.330078 8.7002C0.330078 13.1185 3.9118 16.7002 8.33008 16.7002Z" fill="#EBEBEB"/>
<path d="M9.03208 11.7639C9.04075 11.9459 9.14041 12.0585 9.33108 12.1019L9.55208 12.1409C9.74275 12.1842 9.83808 12.2882 9.83808 12.4529C9.83808 12.6175 9.72975 12.6999 9.51308 12.6999H7.12108C6.90441 12.6999 6.79608 12.6175 6.79608 12.4529C6.79608 12.2969 6.89575 12.1972 7.09508 12.1539L7.35508 12.1019C7.54575 12.0585 7.64541 11.9459 7.65408 11.7639V9.46285C7.65408 9.28951 7.65408 9.13351 7.65408 8.99485C7.65408 8.85618 7.64975 8.72618 7.64108 8.60485C7.63241 8.53551 7.62808 8.46618 7.62808 8.39685C7.62808 8.32751 7.62808 8.25818 7.62808 8.18885C7.61075 7.98951 7.50675 7.87685 7.31608 7.85085L7.00408 7.81185C6.80475 7.78585 6.70508 7.69485 6.70508 7.53885C6.70508 7.40018 6.79175 7.29618 6.96508 7.22685L8.65508 6.61585C8.69841 6.59851 8.73741 6.58551 8.77208 6.57685C8.80675 6.56818 8.84141 6.56385 8.87608 6.56385C8.91941 6.56385 8.95408 6.57685 8.98008 6.60285C9.04075 6.65485 9.07108 6.75885 9.07108 6.91485L9.03208 8.39685V11.7639ZM8.33008 5.34185C8.05275 5.34185 7.82308 5.25951 7.64108 5.09485C7.46775 4.93018 7.38108 4.71351 7.38108 4.44485C7.38108 4.17618 7.46775 3.95951 7.64108 3.79485C7.82308 3.63018 8.05275 3.54785 8.33008 3.54785C8.59875 3.54785 8.81975 3.63018 8.99308 3.79485C9.17508 3.95951 9.26608 4.17618 9.26608 4.44485C9.26608 4.71351 9.17508 4.93018 8.99308 5.09485C8.81975 5.25951 8.59875 5.34185 8.33008 5.34185Z" fill="#5B24C9"/>
</g>
<defs>
<clipPath id="clip0_1_11210">
<rect width="16" height="16" fill="white" transform="translate(0.330078 0.700195)"/>
</clipPath>
</defs>
</svg>
